REM DIRINDEX 1\2,1\3
REM DIRNAME cjc116,folder01,folder02
TITLE ""
FILE "Disc1Track12.mp3" MP3
  TRACK 01 AUDIO
    TITLE "0:"
    INDEX 01 00:00:00
  TRACK 02 AUDIO
    TITLE "3:cjc116_1305"
    INDEX 01 00:00:09
  TRACK 03 AUDIO
    TITLE "0:"
    INDEX 01 00:01:58
  TRACK 04 AUDIO
    TITLE "2:cjc116_1306"
    INDEX 01 00:02:34
  TRACK 05 AUDIO
    TITLE "0:"
    INDEX 01 00:03:37
  TRACK 06 AUDIO
    TITLE "2:cjc116_1307"
    INDEX 01 00:03:57
  TRACK 07 AUDIO
    TITLE "0:"
    INDEX 01 00:07:72
  TRACK 08 AUDIO
    TITLE "2:cjc116_1308"
    INDEX 01 00:08:48
  TRACK 09 AUDIO
    TITLE "0:"
    INDEX 01 00:09:49
  TRACK 10 AUDIO
    TITLE "2:cjc116_1309"
    INDEX 01 00:09:67
  TRACK 11 AUDIO
    TITLE "0:"
    INDEX 01 00:14:21
  TRACK 12 AUDIO
    TITLE "2:cjc116_1310"
    INDEX 01 00:15:01
  TRACK 13 AUDIO
    TITLE "0:"
    INDEX 01 00:15:72
  TRACK 14 AUDIO
    TITLE "2:cjc116_1311"
    INDEX 01 00:16:14
  TRACK 15 AUDIO
    TITLE "0:"
    INDEX 01 00:20:20
  TRACK 16 AUDIO
    TITLE "2:cjc116_1312"
    INDEX 01 00:20:59
  TRACK 17 AUDIO
    TITLE "0:"
    INDEX 01 00:21:72
  TRACK 18 AUDIO
    TITLE "2:cjc116_1313"
    INDEX 01 00:22:13
  TRACK 19 AUDIO
    TITLE "0:"
    INDEX 01 00:26:46
  TRACK 20 AUDIO
    TITLE "2:cjc116_1314"
    INDEX 01 00:27:14
  TRACK 21 AUDIO
    TITLE "0:"
    INDEX 01 00:28:08
  TRACK 22 AUDIO
    TITLE "2:cjc116_1315"
    INDEX 01 00:28:27
  TRACK 23 AUDIO
    TITLE "0:"
    INDEX 01 00:32:62
  TRACK 24 AUDIO
    TITLE "2:cjc116_1316"
    INDEX 01 00:33:26
  TRACK 25 AUDIO
    TITLE "0:"
    INDEX 01 00:34:28
  TRACK 26 AUDIO
    TITLE "2:cjc116_1317"
    INDEX 01 00:34:43
  TRACK 27 AUDIO
    TITLE "0:"
    INDEX 01 00:39:19
  TRACK 28 AUDIO
    TITLE "2:cjc116_1318"
    INDEX 01 00:39:56
  TRACK 29 AUDIO
    TITLE "0:"
    INDEX 01 00:40:64
  TRACK 30 AUDIO
    TITLE "2:cjc116_1319"
    INDEX 01 00:41:06
  TRACK 31 AUDIO
    TITLE "0:"
    INDEX 01 00:45:28
  TRACK 32 AUDIO
    TITLE "2:cjc116_1320"
    INDEX 01 00:45:65
  TRACK 33 AUDIO
    TITLE "0:"
    INDEX 01 00:46:64
  TRACK 34 AUDIO
    TITLE "2:cjc116_1321"
    INDEX 01 00:47:09
  TRACK 35 AUDIO
    TITLE "0:"
    INDEX 01 00:51:36
  TRACK 36 AUDIO
    TITLE "2:cjc116_1322"
    INDEX 01 00:52:12
  TRACK 37 AUDIO
    TITLE "0:"
    INDEX 01 00:53:17
  TRACK 38 AUDIO
    TITLE "2:cjc116_1323"
    INDEX 01 00:53:33
  TRACK 39 AUDIO
    TITLE "0:"
    INDEX 01 00:57:29
  TRACK 40 AUDIO
    TITLE "2:cjc116_1324"
    INDEX 01 00:57:68
  TRACK 41 AUDIO
    TITLE "0:"
    INDEX 01 00:58:67
  TRACK 42 AUDIO
    TITLE "2:cjc116_1325"
    INDEX 01 00:59:12
  TRACK 43 AUDIO
    TITLE "0:"
    INDEX 01 01:04:68
  TRACK 44 AUDIO
    TITLE "2:cjc116_1326"
    INDEX 01 01:05:46
  TRACK 45 AUDIO
    TITLE "0:"
    INDEX 01 01:06:43
  TRACK 46 AUDIO
    TITLE "2:cjc116_1327"
    INDEX 01 01:06:61
  TRACK 47 AUDIO
    TITLE "0:"
    INDEX 01 01:11:03
  TRACK 48 AUDIO
    TITLE "2:cjc116_1328"
    INDEX 01 01:11:54
  TRACK 49 AUDIO
    TITLE "0:"
    INDEX 01 01:12:54
  TRACK 50 AUDIO
    TITLE "2:cjc116_1329"
    INDEX 01 01:12:68
  TRACK 51 AUDIO
    TITLE "0:"
    INDEX 01 01:16:71
  TRACK 52 AUDIO
    TITLE "2:cjc116_1330"
    INDEX 01 01:17:45
  TRACK 53 AUDIO
    TITLE "0:"
    INDEX 01 01:18:45
  TRACK 54 AUDIO
    TITLE "2:cjc116_1331"
    INDEX 01 01:18:64
  TRACK 55 AUDIO
    TITLE "0:"
    INDEX 01 01:22:48
  TRACK 56 AUDIO
    TITLE "2:cjc116_1332"
    INDEX 01 01:23:20
  TRACK 57 AUDIO
    TITLE "0:"
    INDEX 01 01:24:28
  TRACK 58 AUDIO
    TITLE "2:cjc116_1333"
    INDEX 01 01:24:37
  TRACK 59 AUDIO
    TITLE "0:"
    INDEX 01 01:29:21
  TRACK 60 AUDIO
    TITLE "2:cjc116_1334"
    INDEX 01 01:29:60
  TRACK 61 AUDIO
    TITLE "0:"
    INDEX 01 01:30:71
  TRACK 62 AUDIO
    TITLE "2:cjc116_1335"
    INDEX 01 01:31:10
  TRACK 63 AUDIO
    TITLE "0:"
    INDEX 01 01:35:16
  TRACK 64 AUDIO
    TITLE "2:cjc116_1336"
    INDEX 01 01:35:61
  TRACK 65 AUDIO
    TITLE "0:"
    INDEX 01 01:37:03
  TRACK 66 AUDIO
    TITLE "2:cjc116_1337"
    INDEX 01 01:37:11
  TRACK 67 AUDIO
    TITLE "0:"
    INDEX 01 01:40:66
  TRACK 68 AUDIO
    TITLE "2:cjc116_1338"
    INDEX 01 01:41:36
  TRACK 69 AUDIO
    TITLE "0:"
    INDEX 01 01:42:41
  TRACK 70 AUDIO
    TITLE "2:cjc116_1339"
    INDEX 01 01:42:55
  TRACK 71 AUDIO
    TITLE "0:"
    INDEX 01 01:47:31
  TRACK 72 AUDIO
    TITLE "2:cjc116_1340"
    INDEX 01 01:48:05
  TRACK 73 AUDIO
    TITLE "0:"
    INDEX 01 01:49:26
  TRACK 74 AUDIO
    TITLE "2:cjc116_1341"
    INDEX 01 01:49:43
  TRACK 75 AUDIO
    TITLE "0:"
    INDEX 01 01:53:51
  TRACK 76 AUDIO
    TITLE "2:cjc116_1342"
    INDEX 01 01:54:13
  TRACK 77 AUDIO
    TITLE "0:"
    INDEX 01 01:55:22
  TRACK 78 AUDIO
    TITLE "2:cjc116_1343"
    INDEX 01 01:55:38
  TRACK 79 AUDIO
    TITLE "0:"
    INDEX 01 01:59:61
  TRACK 80 AUDIO
    TITLE "2:cjc116_1344"
    INDEX 01 02:00:22
  TRACK 81 AUDIO
    TITLE "0:"
    INDEX 01 02:01:33
  TRACK 82 AUDIO
    TITLE "2:cjc116_1345"
    INDEX 01 02:01:54
  TRACK 83 AUDIO
    TITLE "0:"
    INDEX 01 02:05:44
  TRACK 84 AUDIO
    TITLE "2:cjc116_1346"
    INDEX 01 02:06:12
  TRACK 85 AUDIO
    TITLE "0:"
    INDEX 01 02:07:20
  TRACK 86 AUDIO
    TITLE "2:cjc116_1347"
    INDEX 01 02:07:35
  TRACK 87 AUDIO
    TITLE "0:"
    INDEX 01 02:11:17
  TRACK 88 AUDIO
    TITLE "2:cjc116_1348"
    INDEX 01 02:11:59
  TRACK 89 AUDIO
    TITLE "0:"
    INDEX 01 02:12:58
  TRACK 90 AUDIO
    TITLE "2:cjc116_1349"
    INDEX 01 02:12:72
  TRACK 91 AUDIO
    TITLE "0:"
    INDEX 01 02:17:45
  TRACK 92 AUDIO
    TITLE "2:cjc116_1350"
    INDEX 01 02:18:25
  TRACK 93 AUDIO
    TITLE "0:"
    INDEX 01 02:19:25
  TRACK 94 AUDIO
    TITLE "2:cjc116_1351"
    INDEX 01 02:19:39
  TRACK 95 AUDIO
    TITLE "0:"
    INDEX 01 02:23:66
  TRACK 96 AUDIO
    TITLE "2:cjc116_1352"
    INDEX 01 02:24:36
  TRACK 97 AUDIO
    TITLE "0:"
    INDEX 01 02:25:20
  TRACK 98 AUDIO
    TITLE "2:cjc116_1353"
    INDEX 01 02:25:37
  TRACK 99 AUDIO
    TITLE "0:"
    INDEX 01 02:28:47
  TRACK 100 AUDIO
    TITLE "2:cjc116_1354"
    INDEX 01 02:29:17
  TRACK 101 AUDIO
    TITLE "0:"
    INDEX 01 02:30:09
  TRACK 102 AUDIO
    TITLE "2:cjc116_1355"
    INDEX 01 02:30:29
  TRACK 103 AUDIO
    TITLE "0:"
    INDEX 01 02:34:24
  TRACK 104 AUDIO
    TITLE "2:cjc116_1356"
    INDEX 01 02:34:66
  TRACK 105 AUDIO
    TITLE "0:"
    INDEX 01 02:35:67
  TRACK 106 AUDIO
    TITLE "2:cjc116_1357"
    INDEX 01 02:36:02
  TRACK 107 AUDIO
    TITLE "0:"
    INDEX 01 02:40:07
  TRACK 108 AUDIO
    TITLE "2:cjc116_1358"
    INDEX 01 02:40:54
  TRACK 109 AUDIO
    TITLE "0:"
    INDEX 01 02:41:71
  TRACK 110 AUDIO
    TITLE "2:cjc116_1359"
    INDEX 01 02:42:10
  TRACK 111 AUDIO
    TITLE "0:"
    INDEX 01 02:46:08
  TRACK 112 AUDIO
    TITLE "2:cjc116_1360"
    INDEX 01 02:46:69
  TRACK 113 AUDIO
    TITLE "0:"
    INDEX 01 02:47:68
  TRACK 114 AUDIO
    TITLE "2:cjc116_1361"
    INDEX 01 02:48:13
  TRACK 115 AUDIO
    TITLE "0:"
    INDEX 01 02:53:00
  TRACK 116 AUDIO
    TITLE "2:cjc116_1362"
    INDEX 01 02:53:45
  TRACK 117 AUDIO
    TITLE "0:"
    INDEX 01 02:54:54
  TRACK 118 AUDIO
    TITLE "2:cjc116_1363"
    INDEX 01 02:54:68
  TRACK 119 AUDIO
    TITLE "0:"
    INDEX 01 02:59:24
  TRACK 120 AUDIO
    TITLE "2:cjc116_1364"
    INDEX 01 02:59:69
  TRACK 121 AUDIO
    TITLE "0:"
    INDEX 01 03:00:71
  TRACK 122 AUDIO
    TITLE "2:cjc116_1365"
    INDEX 01 03:01:09
  TRACK 123 AUDIO
    TITLE "0:"
    INDEX 01 03:08:51
  TRACK 124 AUDIO
    TITLE "2:cjc116_1366"
    INDEX 01 03:09:31
  TRACK 125 AUDIO
    TITLE "0:"
    INDEX 01 03:10:46
  TRACK 126 AUDIO
    TITLE "2:cjc116_1367"
    INDEX 01 03:10:63
  TRACK 127 AUDIO
    TITLE "0:"
    INDEX 01 03:15:31
  TRACK 128 AUDIO
    TITLE "2:cjc116_1368"
    INDEX 01 03:15:74
  TRACK 129 AUDIO
    TITLE "0:"
    INDEX 01 03:16:70
  TRACK 130 AUDIO
    TITLE "2:cjc116_1369"
    INDEX 01 03:17:09
  TRACK 131 AUDIO
    TITLE "0:"
    INDEX 01 03:21:42
  TRACK 132 AUDIO
    TITLE "2:cjc116_1370"
    INDEX 01 03:22:10
  TRACK 133 AUDIO
    TITLE "0:"
    INDEX 01 03:23:07
  TRACK 134 AUDIO
    TITLE "2:cjc116_1371"
    INDEX 01 03:23:25
  TRACK 135 AUDIO
    TITLE "0:"
    INDEX 01 03:27:44
  TRACK 136 AUDIO
    TITLE "2:cjc116_1372"
    INDEX 01 03:28:12
  TRACK 137 AUDIO
    TITLE "0:"
    INDEX 01 03:28:73
  TRACK 138 AUDIO
    TITLE "2:cjc116_1373"
    INDEX 01 03:29:10
  TRACK 139 AUDIO
    TITLE "0:"
    INDEX 01 03:32:71
  TRACK 140 AUDIO
    TITLE "2:cjc116_1374"
    INDEX 01 03:33:35
  TRACK 141 AUDIO
    TITLE "0:"
    INDEX 01 03:34:27
  TRACK 142 AUDIO
    TITLE "2:cjc116_1375"
    INDEX 01 03:34:46
  TRACK 143 AUDIO
    TITLE "0:"
    INDEX 01 03:38:73
  TRACK 144 AUDIO
    TITLE "2:cjc116_1376"
    INDEX 01 03:39:53
  TRACK 145 AUDIO
    TITLE "0:"
    INDEX 01 03:40:47
  TRACK 146 AUDIO
    TITLE "2:cjc116_1377"
    INDEX 01 03:40:62
  TRACK 147 AUDIO
    TITLE "0:"
    INDEX 01 03:45:11
  TRACK 148 AUDIO
    TITLE "2:cjc116_1378"
    INDEX 01 03:45:48
  TRACK 149 AUDIO
    TITLE "0:"
    INDEX 01 03:46:45
  TRACK 150 AUDIO
    TITLE "2:cjc116_1379"
    INDEX 01 03:46:55
  TRACK 151 AUDIO
    TITLE "0:"
    INDEX 01 03:52:03
  TRACK 152 AUDIO
    TITLE "2:cjc116_1380"
    INDEX 01 03:52:44
  TRACK 153 AUDIO
    TITLE "0:"
    INDEX 01 03:53:26
  TRACK 154 AUDIO
    TITLE "2:cjc116_1381"
    INDEX 01 03:53:44
  TRACK 155 AUDIO
    TITLE "0:"
    INDEX 01 03:58:60
